Coordinates
version=1
nRows=13
nColumns=36
inDegrees=yes

Units are S.I. units (second, meters, Newtons, ...)
If the header above contains a line with 'inDegrees', this indicates whether rotational values are in degrees (yes) or radians (no).

endheader
time	pelvis_tilt	pelvis_list	pelvis_rotation	pelvis_tx	pelvis_ty	pelvis_tz	hip_flexion_r	hip_adduction_r	hip_rotation_r	knee_angle_r	knee_angle_r_beta	ankle_angle_r	subtalar_angle_r	mtp_angle_r	hip_flexion_l	hip_adduction_l	hip_rotation_l	knee_angle_l	knee_angle_l_beta	ankle_angle_l	subtalar_angle_l	mtp_angle_l	lumbar_extension	lumbar_bending	lumbar_rotation	arm_flex_r	arm_add_r	arm_rot_r	elbow_flex_r	pro_sup_r	arm_flex_l	arm_add_l	arm_rot_l	elbow_flex_l	pro_sup_l
      2.68333330	     -5.41819411	      0.48980924	     -3.02983821	      0.10941508	      0.91383501	      0.08147916	      2.80774161	     -1.50104766	     -1.60986472	      0.73314683	      0.01279583	      3.84326547	    -12.74053216	     -7.49999987	      2.88104384	     -4.85166143	     -0.96489721	      1.73002007	      0.03019455	      4.33185913	    -10.42589209	     -7.49999987	      6.79612697	     -2.43570547	     -6.78134301	     59.65574243	    -23.60257650	     38.33719451	    136.31233495	     78.84199836	    -46.75947945	    -32.98238236	     17.99734168	    114.84198374	     95.37841021
      2.70000000	     -5.37752001	      0.49335385	     -3.11130770	      0.10994834	      0.91365559	      0.08169479	      2.76633463	     -1.50192925	     -1.79651751	      0.69553210	      0.01213933	      3.95969595	    -12.38532785	     -7.49999987	      2.74686541	     -4.84037810	     -1.05102153	      1.60455347	      0.02800474	      4.43509999	    -10.30340820	     -7.49999987	      6.75096009	     -2.42645889	     -6.96821304	     59.61891669	    -23.06245290	     38.86343804	    135.93452826	     80.01979293	    -46.94817266	    -32.69127688	     17.57025002	    114.79493269	     97.35353770
      2.71666670	     -5.32648364	      0.49972195	     -3.25279751	      0.10950858	      0.91463512	      0.08126614	      2.74117953	     -1.50443354	     -1.73248413	      0.67097334	      0.01171069	      3.86345280	    -12.39649919	     -7.49999987	      2.58839532	     -4.80260745	     -1.11953433	      1.52788592	      0.02666664	      4.47435791	    -10.26171682	     -7.49999987	      6.75557752	     -2.37007747	     -6.78304286	     59.47156563	    -22.62713107	     39.51419940	    135.61081895	     80.54122502	    -46.55429216	    -32.82309556	     18.07291359	    114.48012937	     96.61571526
      2.73333330	     -5.29406822	      0.54121653	     -3.36000344	      0.10901097	      0.91872154	      0.08114827	      2.73234307	     -1.54960687	     -1.64131277	      0.61002820	      0.01064700	      3.74289714	    -12.27922265	     -7.49999987	      2.48236683	     -4.72221556	     -1.21333391	      1.47253030	      0.02570050	      4.46212551	    -10.12276455	     -7.49999987	      6.78196422	     -2.32418488	     -6.38387813	     59.15787290	    -22.29185104	     40.19873795	    135.42206305	     80.68952434	    -45.44846580	    -33.34546055	     19.00815905	    114.00833457	     95.58101858
      2.75000000	     -5.29283662	      0.56805333	     -3.39328026	      0.10932358	      0.91919293	      0.08089960	      2.72634166	     -1.60937360	     -1.87745267	      0.57819468	      0.01009140	      3.90276502	    -11.58450546	     -7.49999987	      2.41584203	     -4.64572748	     -1.10891256	      1.42246512	      0.02482670	      4.41314499	    -10.21205692	     -7.49999987	      6.74371472	     -2.30867627	     -6.35363694	     59.21325570	    -21.45760607	     40.85830304	    135.01807784	     81.49498102	    -45.13785691	    -33.40097929	     18.92341057	    113.67059830	     95.14852286
      2.76666670	     -5.38555916	      0.55604384	     -3.45350248	      0.10837573	      0.91861744	      0.08183169	      2.85869261	     -1.59109919	     -1.91321189	      0.54252964	      0.00946893	      3.80428939	    -11.31962322	     -7.49999987	      2.48799160	     -4.63624943	     -1.20733114	      1.37243478	      0.02395351	      4.25410574	    -10.22138617	     -7.49999987	      6.79205101	     -2.24324918	     -6.00300218	     59.38392570	    -20.92561589	     41.42784062	    134.97501359	     81.70407727	    -44.10407863	    -33.87687750	     19.32890314	    113.49726409	     95.51578915
      2.78333330	     -5.46815213	      0.50993621	     -3.43717793	      0.10941350	      0.92140685	      0.08139291	      2.92723291	     -1.55197616	     -1.98480807	      0.51903697	      0.00905890	      3.87513528	    -10.84925742	     -7.49999987	      2.51800272	     -4.67234318	     -1.19740446	      1.27006959	      0.02216690	      4.26909432	    -10.05319236	     -7.49999987	      6.83941356	     -2.15145602	     -5.87287922	     59.63829817	    -20.03423877	     42.05077402	    134.97584873	     80.98653656	    -43.53678296	    -34.22577579	     19.39094615	    113.20082608	     94.07536272
      2.80000000	     -5.37632811	      0.44552188	     -3.49236930	      0.10828927	      0.92249549	      0.08093445	      2.83185380	     -1.52623773	     -2.00652721	      0.51361014	      0.00896419	      3.88757169	    -10.50436936	     -7.49999987	      2.37311784	     -4.70676725	     -1.24393486	      1.22362634	      0.02135631	      4.06366195	    -10.11503482	     -7.49999987	      6.58815644	     -1.98857742	     -5.71626372	     60.02743841	    -18.77760489	     42.49458515	    134.64872727	     81.06433210	    -42.42592406	    -34.59595762	     20.10536049	    112.69196160	     94.26893500
      2.81666670	     -5.29064681	      0.34123129	     -3.52812661	      0.10783337	      0.91957927	      0.08118868	      2.76271011	     -1.42945384	     -2.06578518	      0.51161409	      0.00892935	      4.05663390	    -10.13317849	     -7.49999987	      2.27873123	     -4.79457305	     -1.29198775	      1.21322674	      0.02117480	      4.02334477	    -10.10471036	     -7.49999987	      6.48190852	     -1.74032597	     -5.25389483	     60.54690736	    -18.02612223	     43.01742399	    134.22343968	     81.77865128	    -40.94958983	    -35.29941418	     21.45173190	    112.16658798	     94.45923699
      2.83333330	     -5.25195673	      0.27591722	     -3.54216976	      0.10721290	      0.92012934	      0.08099485	      2.75158373	     -1.38075242	     -2.24368029	      0.50605868	      0.00883239	      4.22053724	     -9.76945117	     -7.49999987	      2.26946251	     -4.85226426	     -1.21885719	      1.23116883	      0.02148795	      3.91639329	    -10.21792067	     -7.49999987	      6.36137716	     -1.59110826	     -5.20764730	     61.09768294	    -17.06116163	     43.45395046	    133.75068039	     80.58939397	    -40.40279269	    -35.63615963	     21.68495978	    111.94715832	     92.31648260
      2.85000000	     -5.15714941	      0.19396705	     -3.70729219	      0.10638963	      0.91634474	      0.08116169	      2.70357218	     -1.28388872	     -1.87688213	      0.50437984	      0.00880309	      4.20834733	    -10.15901485	     -7.49999987	      2.17183737	     -4.93092901	     -1.38970347	      1.19738760	      0.02089836	      4.01345982	    -10.23003129	     -7.49999987	      6.26019888	     -1.26254248	     -4.80456584	     62.04484398	    -15.98159195	     43.78018625	    132.69320025	     80.52145297	    -39.15417632	    -36.36258565	     23.15541955	    111.48984863	     91.48817249
      2.86666670	     -5.10913411	      0.19846795	     -3.71668484	      0.10609167	      0.91928855	      0.08124767	      2.66532515	     -1.29123664	     -2.08218783	      0.50478097	      0.00881009	      4.47420163	     -9.69997524	     -7.49999987	      2.17949820	     -4.92478821	     -1.33422279	      1.21768863	      0.02125268	      3.89298433	    -10.42761927	     -7.49999987	      6.07373812	     -1.21565724	     -4.71751496	     62.65830097	    -14.95713524	     44.03147412	    131.94604953	     79.38388093	    -38.69108811	    -36.60031753	     23.51151884	    111.06665745	     89.25741497
      2.88333330	     -5.16852685	      0.24354568	     -3.80695230	      0.10594488	      0.91983547	      0.08081491	      2.75846601	     -1.34163224	     -1.95189844	      0.50818054	      0.00886942	      4.57228944	     -9.62926507	     -7.49999987	      2.28909936	     -4.87763986	     -1.44082402	      1.24894903	      0.02179827	      3.80742570	    -10.43081762	     -7.49999987	      6.01432894	     -1.25477462	     -4.45575973	     62.85637879	    -14.20813035	     43.96578782	    131.76554723	     79.46782150	    -38.29873327	    -36.80486573	     23.43872613	    110.75200069	     89.37352198
